<svg width="16" height="16" viewBox="0 0 16 16" fill="none" xmlns="http://www.w3.org/2000/svg">
<path d="M14.6666 2.5H1.33325C1.05992 2.5 0.833252 2.27333 0.833252 2C0.833252 1.72667 1.05992 1.5 1.33325 1.5H14.6666C14.9399 1.5 15.1666 1.72667 15.1666 2C15.1666 2.27333 14.9399 2.5 14.6666 2.5Z" fill="#93989D"/>
<path d="M7.33325 6.5H1.33325C1.05992 6.5 0.833252 6.27333 0.833252 6C0.833252 5.72667 1.05992 5.5 1.33325 5.5H7.33325C7.60659 5.5 7.83325 5.72667 7.83325 6C7.83325 6.27333 7.60659 6.5 7.33325 6.5Z" fill="#93989D"/>
<path d="M5.33325 10.5H1.33325C1.05992 10.5 0.833252 10.2733 0.833252 10C0.833252 9.72667 1.05992 9.5 1.33325 9.5H5.33325C5.60659 9.5 5.83325 9.72667 5.83325 10C5.83325 10.2733 5.60659 10.5 5.33325 10.5Z" fill="#93989D"/>
<path d="M3.99992 14.5H1.33325C1.05992 14.5 0.833252 14.2733 0.833252 14C0.833252 13.7267 1.05992 13.5 1.33325 13.5H3.99992C4.27325 13.5 4.49992 13.7267 4.49992 14C4.49992 14.2733 4.27325 14.5 3.99992 14.5Z" fill="#93989D"/>
<path d="M7.89352 15.1668C6.82019 15.1668 5.94019 14.2934 5.94019 13.2134C5.94019 12.1401 6.81352 11.2601 7.89352 11.2601C8.97352 11.2601 9.84685 12.1334 9.84685 13.2134C9.84685 14.2934 8.97352 15.1668 7.89352 15.1668ZM7.89352 12.2668C7.36685 12.2668 6.94019 12.6934 6.94019 13.2201C6.94019 13.7468 7.36685 14.1734 7.89352 14.1734C8.42019 14.1734 8.84685 13.7468 8.84685 13.2201C8.84685 12.6934 8.42019 12.2668 7.89352 12.2668Z" fill="#93989D"/>
<path d="M9.34668 13.7134C9.07335 13.7134 8.84668 13.4867 8.84668 13.2134V7.36671C8.84668 6.56004 9.32668 5.92673 10.1067 5.72006L13.0067 4.92673C13.64 4.7534 14.1867 4.82005 14.5733 5.12005C14.96 5.42005 15.16 5.90672 15.16 6.58005V12.2534C15.16 12.5267 14.9333 12.7534 14.66 12.7534C14.3867 12.7534 14.16 12.5267 14.16 12.2534V6.58005C14.16 6.24672 14.0933 6.01339 13.9667 5.92006C13.84 5.82006 13.58 5.81337 13.2667 5.90004L10.3667 6.69337C10.1733 6.7467 9.84668 6.90672 9.84668 7.38006V13.2267C9.84668 13.4934 9.62001 13.7134 9.34668 13.7134Z" fill="#93989D"/>
<path d="M13.2133 14.2C12.14 14.2 11.26 13.3267 11.26 12.2467C11.26 11.1734 12.1333 10.2934 13.2133 10.2934C14.2933 10.2934 15.1667 11.1667 15.1667 12.2467C15.1667 13.3267 14.2933 14.2 13.2133 14.2ZM13.2133 11.3C12.6867 11.3 12.26 11.7267 12.26 12.2534C12.26 12.78 12.6867 13.2067 13.2133 13.2067C13.74 13.2067 14.1667 12.78 14.1667 12.2534C14.1667 11.7267 13.74 11.3 13.2133 11.3Z" fill="#93989D"/>
<path d="M9.34669 9.56669C9.12669 9.56669 8.92669 9.42003 8.86669 9.20003C8.79336 8.93337 8.95336 8.66004 9.22002 8.58671L14.54 7.13338C14.8067 7.06005 15.08 7.22003 15.1534 7.4867C15.2267 7.75336 15.0667 8.02672 14.8 8.10006L9.48002 9.55339C9.43336 9.56005 9.38669 9.56669 9.34669 9.56669Z" fill="#93989D"/>
</svg>
