<svg width="16" height="16" viewBox="0 0 16 16" fill="none" xmlns="http://www.w3.org/2000/svg">
<path d="M8 10.5C6.62 10.5 5.5 9.38 5.5 8C5.5 6.62 6.62 5.5 8 5.5C9.38 5.5 10.5 6.62 10.5 8C10.5 9.38 9.38 10.5 8 10.5ZM8 6.5C7.17333 6.5 6.5 7.17333 6.5 8C6.5 8.82667 7.17333 9.5 8 9.5C8.82667 9.5 9.5 8.82667 9.5 8C9.5 7.17333 8.82667 6.5 8 6.5Z" fill="#93989D"/>
<path d="M10.1399 14.7933C9.99992 14.7933 9.85992 14.7733 9.71992 14.74C9.30659 14.6267 8.95992 14.3667 8.73992 14L8.65992 13.8667C8.26659 13.1867 7.72659 13.1867 7.33325 13.8667L7.25992 13.9933C7.03992 14.3667 6.69325 14.6333 6.27992 14.74C5.85992 14.8533 5.42659 14.7933 5.05992 14.5733L3.91325 13.9133C3.50659 13.68 3.21325 13.3 3.08659 12.84C2.96659 12.38 3.02659 11.9067 3.25992 11.5C3.45325 11.16 3.50659 10.8533 3.39325 10.66C3.27992 10.4667 2.99325 10.3533 2.59992 10.3533C1.62659 10.3533 0.833252 9.55999 0.833252 8.58665V7.41332C0.833252 6.43999 1.62659 5.64665 2.59992 5.64665C2.99325 5.64665 3.27992 5.53332 3.39325 5.33999C3.50659 5.14665 3.45992 4.83999 3.25992 4.49999C3.02659 4.09332 2.96659 3.61332 3.08659 3.15999C3.20659 2.69999 3.49992 2.31999 3.91325 2.08665L5.06659 1.42665C5.81992 0.979988 6.81325 1.23999 7.26659 2.00665L7.34659 2.13999C7.73992 2.81999 8.27992 2.81999 8.67325 2.13999L8.74659 2.01332C9.19992 1.23999 10.1933 0.979988 10.9533 1.43332L12.0999 2.09332C12.5066 2.32665 12.7999 2.70665 12.9266 3.16665C13.0466 3.62665 12.9866 4.09999 12.7533 4.50665C12.5599 4.84665 12.5066 5.15332 12.6199 5.34665C12.7333 5.53999 13.0199 5.65332 13.4133 5.65332C14.3866 5.65332 15.1799 6.44665 15.1799 7.41999V8.59332C15.1799 9.56665 14.3866 10.36 13.4133 10.36C13.0199 10.36 12.7333 10.4733 12.6199 10.6667C12.5066 10.86 12.5533 11.1667 12.7533 11.5067C12.9866 11.9133 13.0533 12.3933 12.9266 12.8467C12.8066 13.3067 12.5133 13.6867 12.0999 13.92L10.9466 14.58C10.6933 14.72 10.4199 14.7933 10.1399 14.7933ZM7.99992 12.3267C8.59325 12.3267 9.14659 12.7 9.52659 13.36L9.59992 13.4867C9.67992 13.6267 9.81325 13.7267 9.97325 13.7667C10.1333 13.8067 10.2933 13.7867 10.4266 13.7067L11.5799 13.04C11.7533 12.94 11.8866 12.7733 11.9399 12.5733C11.9933 12.3733 11.9666 12.1667 11.8666 11.9933C11.4866 11.34 11.4399 10.6667 11.7333 10.1533C12.0266 9.63999 12.6333 9.34665 13.3933 9.34665C13.8199 9.34665 14.1599 9.00665 14.1599 8.57999V7.40665C14.1599 6.98665 13.8199 6.63999 13.3933 6.63999C12.6333 6.63999 12.0266 6.34665 11.7333 5.83332C11.4399 5.31999 11.4866 4.64665 11.8666 3.99332C11.9666 3.81999 11.9933 3.61332 11.9399 3.41332C11.8866 3.21332 11.7599 3.05332 11.5866 2.94665L10.4333 2.28665C10.1466 2.11332 9.76659 2.21332 9.59325 2.50665L9.51992 2.63332C9.13992 3.29332 8.58659 3.66665 7.99325 3.66665C7.39992 3.66665 6.84659 3.29332 6.46659 2.63332L6.39325 2.49999C6.22659 2.21999 5.85325 2.11999 5.56659 2.28665L4.41325 2.95332C4.23992 3.05332 4.10659 3.21999 4.05325 3.41999C3.99992 3.61999 4.02659 3.82665 4.12659 3.99999C4.50659 4.65332 4.55325 5.32665 4.25992 5.83999C3.96659 6.35332 3.35992 6.64665 2.59992 6.64665C2.17325 6.64665 1.83325 6.98665 1.83325 7.41332V8.58665C1.83325 9.00665 2.17325 9.35332 2.59992 9.35332C3.35992 9.35332 3.96659 9.64665 4.25992 10.16C4.55325 10.6733 4.50659 11.3467 4.12659 12C4.02659 12.1733 3.99992 12.38 4.05325 12.58C4.10659 12.78 4.23325 12.94 4.40659 13.0467L5.55992 13.7067C5.69992 13.7933 5.86659 13.8133 6.01992 13.7733C6.17992 13.7333 6.31325 13.6267 6.39992 13.4867L6.47325 13.36C6.85325 12.7067 7.40659 12.3267 7.99992 12.3267Z" fill="#93989D"/>
</svg>
