<svg width="20" height="20" viewBox="0 0 20 20" fill="none" xmlns="http://www.w3.org/2000/svg">
<path d="M14.8019 6.99837H10.7513V13.2492C10.7513 13.6592 10.4113 13.9992 10.0013 13.9992C9.5912 13.9992 9.25116 13.6592 9.25116 13.2492V6.99837H5.20065C2.00025 6.99837 0 8.99862 0 12.199V14.7893C0 17.9998 2.00025 20 5.20065 20H14.7919C17.9923 20 19.9925 17.9997 19.9925 14.7993V12.199C20.0025 8.99862 18.0023 6.99837 14.8019 6.99837Z" fill="white"/>
<path d="M10.7514 2.55782L12.8217 4.62808C12.9717 4.7781 13.1617 4.84811 13.3518 4.84811C13.5418 4.84811 13.7318 4.7781 13.8818 4.62808C14.1719 4.33804 14.1719 3.85798 13.8818 3.56795L10.5314 0.217527C10.2414 -0.0725091 9.76131 -0.0725091 9.47127 0.217527L6.12085 3.56795C5.83082 3.85798 5.83082 4.33804 6.12085 4.62808C6.41089 4.91812 6.89095 4.91812 7.18099 4.62808L9.25125 2.55782V6.99838H10.7514V2.55782Z" fill="white"/>
</svg>
