<svg width="32" height="32" viewBox="0 0 32 32" fill="none" xmlns="http://www.w3.org/2000/svg">
<path d="M24.0001 22.3333C23.7868 22.3333 23.5868 22.2667 23.4001 22.1333C22.9601 21.8 22.8668 21.1733 23.2001 20.7333C25.2935 17.9467 25.2935 14.0533 23.2001 11.2667C22.8668 10.8267 22.9601 10.2 23.4001 9.86667C23.8401 9.53334 24.4668 9.62667 24.8001 10.0667C27.4135 13.56 27.4135 18.44 24.8001 21.9333C24.6001 22.2 24.3068 22.3333 24.0001 22.3333Z" fill="white"/>
<path d="M26.4401 25.6667C26.2267 25.6667 26.0267 25.6 25.8401 25.4667C25.4001 25.1333 25.3067 24.5067 25.6401 24.0667C29.2001 19.32 29.2001 12.68 25.6401 7.93334C25.3067 7.49334 25.4001 6.86667 25.8401 6.53334C26.2801 6.20001 26.9067 6.29334 27.2401 6.73334C31.3334 12.1867 31.3334 19.8133 27.2401 25.2667C27.0534 25.5333 26.7467 25.6667 26.4401 25.6667Z" fill="white"/>
<path d="M18.6934 5.03999C17.2001 4.21333 15.2934 4.42666 13.3467 5.63999L9.45341 8.07999C9.18675 8.23999 8.88008 8.33333 8.57341 8.33333H7.33342H6.66675C3.44008 8.33333 1.66675 10.1067 1.66675 13.3333V18.6667C1.66675 21.8933 3.44008 23.6667 6.66675 23.6667H7.33342H8.57341C8.88008 23.6667 9.18675 23.76 9.45341 23.92L13.3467 26.36C14.5201 27.0933 15.6667 27.4533 16.7334 27.4533C17.4267 27.4533 18.0934 27.2933 18.6934 26.96C20.1734 26.1333 21.0001 24.4133 21.0001 22.12V9.87999C21.0001 7.58666 20.1734 5.86666 18.6934 5.03999Z" fill="white"/>
</svg>
