<svg width="16" height="16" viewBox="0 0 16 16" fill="none" xmlns="http://www.w3.org/2000/svg">
<path d="M7.99992 14.4333C7.79325 14.4333 7.59325 14.4067 7.42659 14.3467C4.87992 13.4733 0.833252 10.3733 0.833252 5.79335C0.833252 3.46001 2.71992 1.56668 5.03992 1.56668C6.16658 1.56668 7.21992 2.00668 7.99992 2.79335C8.77992 2.00668 9.83325 1.56668 10.9599 1.56668C13.2799 1.56668 15.1666 3.46668 15.1666 5.79335C15.1666 10.38 11.1199 13.4733 8.57325 14.3467C8.40658 14.4067 8.20658 14.4333 7.99992 14.4333ZM5.03992 2.56668C3.27325 2.56668 1.83325 4.01335 1.83325 5.79335C1.83325 10.3467 6.21325 12.88 7.75325 13.4067C7.87325 13.4467 8.13325 13.4467 8.25325 13.4067C9.78658 12.88 14.1733 10.3533 14.1733 5.79335C14.1733 4.01335 12.7333 2.56668 10.9666 2.56668C9.95325 2.56668 9.01325 3.04001 8.40658 3.86001C8.21992 4.11335 7.79325 4.11335 7.60658 3.86001C6.98658 3.03335 6.05325 2.56668 5.03992 2.56668Z" fill="#93989D"/>
</svg>
